<svg width="532" height="756" viewBox="0 0 532 756" fill="none" xmlns="http://www.w3.org/2000/svg">
<rect width="532" height="756" fill="#1E1E1E"/>
<rect width="1440" height="1024" transform="translate(-454 -134)" fill="white"/>
<rect opacity="0.8" width="532" height="756" rx="10" fill="black"/>
<rect x="25" y="29" width="486" height="167" rx="10" fill="#D9D9D9"/>
<rect x="27" y="227" width="357" height="422" rx="5" fill="#AAFFA1"/>
<path d="M202.004 605.227C201.303 605.227 200.701 604.976 200.2 604.474C199.698 603.973 199.447 603.371 199.447 602.67C199.447 601.97 199.698 601.368 200.2 600.866C200.701 600.365 201.303 600.114 202.004 600.114C202.704 600.114 203.306 600.365 203.808 600.866C204.309 601.368 204.56 601.97 204.56 602.67C204.56 603.134 204.442 603.561 204.205 603.949C203.978 604.337 203.67 604.65 203.282 604.886C202.903 605.114 202.477 605.227 202.004 605.227Z" fill="black"/>
<path d="M312.079 603.011V584.261H315.261V603.011H312.079ZM304.295 595.227V592.045H323.045V595.227H304.295ZM340.208 574.545L330.833 609.375H327.765L337.14 574.545H340.208ZM356.681 590.966V594.091H343.954V590.966H356.681Z" fill="black"/>
<path d="M202.005 294.398C200.055 294.398 198.331 294.052 196.835 293.361C195.348 292.66 194.188 291.699 193.355 290.477C192.521 289.246 192.109 287.845 192.119 286.273C192.109 285.042 192.351 283.905 192.843 282.864C193.336 281.812 194.008 280.937 194.86 280.236C195.722 279.526 196.683 279.076 197.744 278.886V278.716C196.352 278.356 195.244 277.575 194.42 276.372C193.596 275.16 193.189 273.782 193.199 272.239C193.189 270.761 193.563 269.44 194.321 268.276C195.078 267.111 196.12 266.192 197.446 265.52C198.781 264.848 200.301 264.511 202.005 264.511C203.691 264.511 205.197 264.848 206.522 265.52C207.848 266.192 208.89 267.111 209.647 268.276C210.414 269.44 210.803 270.761 210.812 272.239C210.803 273.782 210.381 275.16 209.548 276.372C208.724 277.575 207.63 278.356 206.267 278.716V278.886C207.318 279.076 208.265 279.526 209.108 280.236C209.95 280.937 210.623 281.812 211.125 282.864C211.627 283.905 211.882 285.042 211.892 286.273C211.882 287.845 211.456 289.246 210.613 290.477C209.78 291.699 208.62 292.66 207.133 293.361C205.656 294.052 203.947 294.398 202.005 294.398ZM202.005 291.273C203.322 291.273 204.458 291.06 205.414 290.634C206.371 290.207 207.109 289.606 207.63 288.83C208.151 288.053 208.416 287.144 208.426 286.102C208.416 285.004 208.132 284.033 207.574 283.19C207.015 282.348 206.252 281.685 205.287 281.202C204.33 280.719 203.236 280.477 202.005 280.477C200.765 280.477 199.657 280.719 198.681 281.202C197.716 281.685 196.953 282.348 196.395 283.19C195.845 284.033 195.575 285.004 195.585 286.102C195.575 287.144 195.826 288.053 196.338 288.83C196.859 289.606 197.602 290.207 198.568 290.634C199.534 291.06 200.68 291.273 202.005 291.273ZM202.005 277.466C203.047 277.466 203.97 277.258 204.775 276.841C205.59 276.424 206.229 275.842 206.693 275.094C207.157 274.346 207.394 273.47 207.403 272.466C207.394 271.481 207.162 270.624 206.707 269.895C206.252 269.156 205.623 268.588 204.818 268.19C204.013 267.783 203.075 267.58 202.005 267.58C200.916 267.58 199.965 267.783 199.15 268.19C198.336 268.588 197.706 269.156 197.261 269.895C196.816 270.624 196.598 271.481 196.608 272.466C196.598 273.47 196.821 274.346 197.275 275.094C197.739 275.842 198.378 276.424 199.193 276.841C200.007 277.258 200.945 277.466 202.005 277.466Z" fill="black"/>
<path d="M329.792 264.511C330.985 264.521 332.179 264.748 333.372 265.193C334.565 265.638 335.654 266.377 336.639 267.409C337.624 268.432 338.414 269.829 339.011 271.599C339.608 273.37 339.906 275.591 339.906 278.261C339.906 280.847 339.66 283.143 339.167 285.151C338.684 287.149 337.984 288.834 337.065 290.207C336.156 291.58 335.048 292.622 333.741 293.332C332.444 294.043 330.976 294.398 329.338 294.398C327.709 294.398 326.255 294.076 324.977 293.432C323.708 292.778 322.666 291.874 321.852 290.719C321.047 289.554 320.531 288.205 320.304 286.67H323.77C324.082 288.006 324.702 289.109 325.63 289.98C326.568 290.842 327.804 291.273 329.338 291.273C331.582 291.273 333.353 290.293 334.65 288.332C335.957 286.372 336.61 283.602 336.61 280.023H336.383C335.853 280.818 335.223 281.505 334.494 282.082C333.765 282.66 332.955 283.105 332.065 283.418C331.175 283.73 330.228 283.886 329.224 283.886C327.557 283.886 326.028 283.474 324.636 282.651C323.253 281.817 322.145 280.676 321.312 279.227C320.488 277.769 320.076 276.102 320.076 274.227C320.076 272.447 320.474 270.818 321.27 269.341C322.074 267.854 323.201 266.67 324.65 265.79C326.109 264.909 327.823 264.483 329.792 264.511ZM329.792 267.636C328.599 267.636 327.524 267.935 326.568 268.531C325.621 269.118 324.868 269.914 324.309 270.918C323.76 271.912 323.485 273.015 323.485 274.227C323.485 275.439 323.751 276.543 324.281 277.537C324.821 278.522 325.555 279.308 326.483 279.895C327.42 280.473 328.485 280.761 329.679 280.761C330.578 280.761 331.416 280.586 332.193 280.236C332.969 279.876 333.646 279.388 334.224 278.773C334.811 278.148 335.27 277.442 335.602 276.656C335.933 275.861 336.099 275.032 336.099 274.17C336.099 273.034 335.824 271.969 335.275 270.974C334.735 269.98 333.987 269.175 333.031 268.56C332.084 267.944 331.004 267.636 329.792 267.636Z" fill="black"/>
<path d="M69.4975 387.034V384.136L82.2816 363.909H84.3839V368.398H82.9634L73.3043 383.682V383.909H90.5202V387.034H69.4975ZM83.1907 393V386.153V384.804V363.909H86.543V393H83.1907Z" fill="black"/>
<path d="M201.934 393.398C200.268 393.398 198.767 393.066 197.431 392.403C196.096 391.741 195.026 390.831 194.221 389.676C193.416 388.521 192.976 387.205 192.9 385.727H196.309C196.442 387.044 197.038 388.133 198.099 388.994C199.169 389.847 200.448 390.273 201.934 390.273C203.127 390.273 204.188 389.993 205.116 389.435C206.054 388.876 206.788 388.109 207.318 387.134C207.858 386.149 208.127 385.036 208.127 383.795C208.127 382.527 207.848 381.395 207.289 380.401C206.74 379.397 205.983 378.606 205.017 378.028C204.051 377.451 202.948 377.157 201.707 377.148C200.817 377.138 199.903 377.276 198.966 377.56C198.028 377.834 197.256 378.189 196.65 378.625L193.355 378.227L195.116 363.909H210.23V367.034H198.071L197.048 375.614H197.218C197.815 375.14 198.563 374.747 199.463 374.435C200.362 374.122 201.3 373.966 202.275 373.966C204.056 373.966 205.642 374.392 207.034 375.244C208.435 376.087 209.534 377.242 210.329 378.71C211.134 380.178 211.537 381.854 211.537 383.739C211.537 385.595 211.12 387.252 210.287 388.71C209.463 390.159 208.326 391.305 206.877 392.148C205.429 392.981 203.781 393.398 201.934 393.398Z" fill="black"/>
<path d="M330.19 393.398C328.997 393.379 327.804 393.152 326.61 392.716C325.417 392.28 324.328 391.546 323.343 390.514C322.359 389.473 321.568 388.066 320.971 386.295C320.375 384.515 320.076 382.28 320.076 379.591C320.076 377.015 320.318 374.733 320.801 372.744C321.284 370.746 321.984 369.065 322.903 367.702C323.822 366.329 324.93 365.287 326.227 364.577C327.534 363.866 329.006 363.511 330.645 363.511C332.273 363.511 333.722 363.838 334.991 364.491C336.27 365.135 337.311 366.035 338.116 367.19C338.921 368.346 339.442 369.676 339.679 371.182H336.213C335.891 369.875 335.266 368.791 334.338 367.929C333.41 367.067 332.179 366.636 330.645 366.636C328.391 366.636 326.615 367.616 325.318 369.577C324.03 371.537 323.381 374.288 323.372 377.83H323.599C324.129 377.025 324.759 376.338 325.488 375.77C326.227 375.192 327.041 374.747 327.931 374.435C328.822 374.122 329.764 373.966 330.758 373.966C332.425 373.966 333.949 374.383 335.332 375.216C336.715 376.04 337.823 377.181 338.656 378.639C339.489 380.088 339.906 381.75 339.906 383.625C339.906 385.424 339.503 387.072 338.699 388.568C337.894 390.055 336.762 391.239 335.304 392.119C333.855 392.991 332.15 393.417 330.19 393.398ZM330.19 390.273C331.383 390.273 332.453 389.974 333.4 389.378C334.357 388.781 335.109 387.981 335.659 386.977C336.217 385.973 336.497 384.856 336.497 383.625C336.497 382.422 336.227 381.329 335.687 380.344C335.157 379.349 334.423 378.559 333.485 377.972C332.557 377.384 331.497 377.091 330.304 377.091C329.404 377.091 328.566 377.271 327.789 377.631C327.013 377.981 326.331 378.464 325.744 379.08C325.166 379.695 324.712 380.401 324.38 381.196C324.049 381.982 323.883 382.811 323.883 383.682C323.883 384.837 324.153 385.917 324.693 386.92C325.242 387.924 325.99 388.734 326.937 389.349C327.894 389.965 328.978 390.273 330.19 390.273Z" fill="black"/>
<path d="M83.9418 466.909V496H80.419V470.602H80.2486L73.1463 475.318V471.739L80.419 466.909H83.9418Z" fill="black"/>
<path d="M192.902 496V493.443L202.504 482.932C203.631 481.701 204.559 480.631 205.288 479.722C206.018 478.803 206.557 477.941 206.908 477.136C207.268 476.322 207.447 475.47 207.447 474.58C207.447 473.557 207.201 472.671 206.709 471.923C206.226 471.175 205.563 470.598 204.72 470.19C203.877 469.783 202.93 469.58 201.879 469.58C200.762 469.58 199.786 469.812 198.953 470.276C198.129 470.73 197.49 471.369 197.036 472.193C196.59 473.017 196.368 473.983 196.368 475.091H193.016C193.016 473.386 193.409 471.89 194.195 470.602C194.981 469.314 196.051 468.311 197.405 467.591C198.768 466.871 200.298 466.511 201.993 466.511C203.697 466.511 205.208 466.871 206.524 467.591C207.84 468.311 208.873 469.281 209.621 470.503C210.369 471.724 210.743 473.083 210.743 474.58C210.743 475.65 210.549 476.696 210.161 477.719C209.782 478.732 209.119 479.864 208.172 481.114C207.234 482.354 205.932 483.869 204.266 485.659L197.732 492.648V492.875H211.254V496H192.902Z" fill="black"/>
<path d="M330.107 496.398C328.232 496.398 326.56 496.076 325.092 495.432C323.634 494.788 322.474 493.893 321.612 492.747C320.76 491.592 320.296 490.252 320.22 488.727H323.8C323.875 489.665 324.197 490.474 324.766 491.156C325.334 491.829 326.077 492.349 326.996 492.719C327.914 493.088 328.932 493.273 330.05 493.273C331.3 493.273 332.408 493.055 333.374 492.619C334.339 492.184 335.097 491.578 335.646 490.801C336.196 490.025 336.47 489.125 336.47 488.102C336.47 487.032 336.205 486.09 335.675 485.276C335.144 484.452 334.368 483.808 333.345 483.344C332.322 482.88 331.072 482.648 329.595 482.648H327.266V479.523H329.595C330.75 479.523 331.764 479.314 332.635 478.898C333.516 478.481 334.202 477.894 334.695 477.136C335.196 476.379 335.447 475.489 335.447 474.466C335.447 473.481 335.23 472.624 334.794 471.895C334.358 471.166 333.743 470.598 332.947 470.19C332.161 469.783 331.233 469.58 330.163 469.58C329.16 469.58 328.213 469.764 327.322 470.134C326.442 470.493 325.722 471.019 325.163 471.71C324.605 472.392 324.302 473.216 324.254 474.182H320.845C320.902 472.657 321.361 471.322 322.223 470.176C323.085 469.021 324.212 468.121 325.604 467.477C327.005 466.833 328.544 466.511 330.22 466.511C332.019 466.511 333.563 466.876 334.851 467.605C336.139 468.325 337.128 469.277 337.82 470.46C338.511 471.644 338.857 472.922 338.857 474.295C338.857 475.934 338.426 477.33 337.564 478.486C336.712 479.641 335.552 480.441 334.084 480.886V481.114C335.921 481.417 337.356 482.198 338.388 483.457C339.42 484.707 339.936 486.256 339.936 488.102C339.936 489.684 339.505 491.104 338.643 492.364C337.791 493.614 336.626 494.598 335.149 495.318C333.672 496.038 331.991 496.398 330.107 496.398Z" fill="black"/>
<path d="M80 605.398C77.8598 605.398 76.0369 604.815 74.5312 603.651C73.0256 602.476 71.875 600.777 71.0795 598.551C70.2841 596.316 69.8864 593.617 69.8864 590.455C69.8864 587.311 70.2841 584.626 71.0795 582.401C71.8845 580.166 73.0398 578.461 74.5455 577.287C76.0606 576.103 77.8788 575.511 80 575.511C82.1212 575.511 83.9347 576.103 85.4403 577.287C86.9555 578.461 88.1108 580.166 88.9062 582.401C89.7112 584.626 90.1136 587.311 90.1136 590.455C90.1136 593.617 89.7159 596.316 88.9205 598.551C88.125 600.777 86.9744 602.476 85.4688 603.651C83.9631 604.815 82.1402 605.398 80 605.398ZM80 602.273C82.1212 602.273 83.7689 601.25 84.9432 599.205C86.1174 597.159 86.7045 594.242 86.7045 590.455C86.7045 587.936 86.4347 585.791 85.8949 584.02C85.3646 582.249 84.5975 580.9 83.5938 579.972C82.5994 579.044 81.4015 578.58 80 578.58C77.8977 578.58 76.2547 579.616 75.071 581.69C73.8873 583.755 73.2955 586.676 73.2955 590.455C73.2955 592.973 73.5606 595.114 74.0909 596.875C74.6212 598.636 75.3835 599.976 76.3778 600.895C77.3816 601.813 78.589 602.273 80 602.273Z" fill="black"/>
<line x1="27" y1="546.5" x2="384" y2="546.5" stroke="black"/>
<line x1="27" y1="437.5" x2="384" y2="437.5" stroke="black"/>
<line x1="266.5" y1="227" x2="266.5" y2="649" stroke="black"/>
<line x1="137.5" y1="227" x2="137.5" y2="649" stroke="black"/>
<line x1="27" y1="334.5" x2="384" y2="334.5" stroke="black"/>
<path d="M72.4947 294L85.506 268.261V268.034H70.506V264.909H89.1424V268.205L76.1879 294H72.4947Z" fill="black"/>
<rect x="398" y="227" width="113" height="504" rx="5" fill="#AAFFA1"/>
<path d="M445.748 681.966V678.898H463.248V681.966H445.748ZM445.748 690.375V687.307H463.248V690.375H445.748Z" fill="black"/>
<path d="M449.267 372.182L454.495 381.102L459.722 372.182H463.586L456.54 383.091L463.586 394H459.722L454.495 385.534L449.267 394H445.404L452.336 383.091L445.404 372.182H449.267Z" fill="black"/>
<path d="M452.907 603.011V584.261H456.089V603.011H452.907ZM445.123 595.227V592.045H463.873V595.227H445.123Z" fill="black"/>
<path d="M460.869 482.966V486.091H448.142V482.966H460.869Z" fill="black"/>
<line x1="398" y1="637.5" x2="511" y2="637.5" stroke="black"/>
<line x1="398" y1="546.5" x2="511" y2="546.5" stroke="black"/>
<line x1="398" y1="437.5" x2="511" y2="437.5" stroke="black"/>
<line x1="398" y1="334.5" x2="511" y2="334.5" stroke="black"/>
<rect x="27" y="665" width="357" height="66" rx="5" fill="#AAFFA1"/>
<path d="M176.162 712.455C174.117 712.455 172.355 711.972 170.878 711.006C169.401 710.04 168.265 708.709 167.469 707.014C166.674 705.319 166.276 703.383 166.276 701.205C166.276 698.989 166.683 697.033 167.498 695.338C168.321 693.634 169.467 692.303 170.935 691.347C172.412 690.381 174.136 689.898 176.105 689.898C177.64 689.898 179.022 690.182 180.253 690.75C181.484 691.318 182.493 692.114 183.279 693.136C184.065 694.159 184.552 695.352 184.742 696.716H181.39C181.134 695.722 180.566 694.841 179.685 694.074C178.814 693.297 177.64 692.909 176.162 692.909C174.855 692.909 173.71 693.25 172.725 693.932C171.749 694.604 170.987 695.556 170.438 696.787C169.898 698.009 169.628 699.443 169.628 701.091C169.628 702.777 169.893 704.244 170.424 705.494C170.963 706.744 171.721 707.715 172.696 708.406C173.681 709.098 174.837 709.443 176.162 709.443C177.033 709.443 177.824 709.292 178.534 708.989C179.245 708.686 179.846 708.25 180.338 707.682C180.831 707.114 181.181 706.432 181.39 705.636H184.742C184.552 706.924 184.084 708.084 183.336 709.116C182.597 710.139 181.617 710.954 180.395 711.56C179.183 712.156 177.772 712.455 176.162 712.455ZM192.995 682.909V712H189.642V682.909H192.995ZM208.282 712.455C206.18 712.455 204.367 711.991 202.842 711.062C201.327 710.125 200.157 708.818 199.333 707.142C198.519 705.456 198.112 703.496 198.112 701.261C198.112 699.027 198.519 697.057 199.333 695.352C200.157 693.638 201.303 692.303 202.771 691.347C204.248 690.381 205.972 689.898 207.941 689.898C209.078 689.898 210.2 690.087 211.308 690.466C212.416 690.845 213.424 691.46 214.333 692.312C215.243 693.155 215.967 694.273 216.507 695.665C217.047 697.057 217.316 698.771 217.316 700.807V702.227H200.498V699.33H213.907C213.907 698.098 213.661 697 213.169 696.034C212.686 695.068 211.994 694.306 211.095 693.747C210.205 693.188 209.154 692.909 207.941 692.909C206.606 692.909 205.451 693.241 204.475 693.903C203.51 694.557 202.766 695.409 202.245 696.46C201.725 697.511 201.464 698.638 201.464 699.841V701.773C201.464 703.42 201.748 704.817 202.316 705.963C202.894 707.099 203.694 707.966 204.717 708.562C205.74 709.15 206.928 709.443 208.282 709.443C209.163 709.443 209.958 709.32 210.669 709.074C211.388 708.818 212.009 708.439 212.529 707.938C213.05 707.426 213.453 706.792 213.737 706.034L216.975 706.943C216.635 708.042 216.062 709.008 215.257 709.841C214.452 710.665 213.458 711.309 212.274 711.773C211.09 712.227 209.76 712.455 208.282 712.455ZM228.836 712.511C227.454 712.511 226.199 712.251 225.072 711.73C223.945 711.2 223.05 710.438 222.387 709.443C221.725 708.439 221.393 707.227 221.393 705.807C221.393 704.557 221.639 703.544 222.132 702.767C222.624 701.981 223.282 701.366 224.106 700.92C224.93 700.475 225.839 700.144 226.833 699.926C227.837 699.699 228.846 699.519 229.859 699.386C231.185 699.216 232.26 699.088 233.083 699.003C233.917 698.908 234.523 698.752 234.902 698.534C235.29 698.316 235.484 697.937 235.484 697.398V697.284C235.484 695.883 235.1 694.794 234.333 694.017C233.576 693.241 232.425 692.852 230.882 692.852C229.281 692.852 228.027 693.203 227.118 693.903C226.208 694.604 225.569 695.352 225.2 696.148L222.018 695.011C222.586 693.686 223.344 692.653 224.291 691.915C225.247 691.167 226.289 690.646 227.416 690.352C228.552 690.049 229.67 689.898 230.768 689.898C231.469 689.898 232.274 689.983 233.183 690.153C234.101 690.314 234.987 690.651 235.839 691.162C236.701 691.673 237.416 692.445 237.984 693.477C238.552 694.509 238.836 695.892 238.836 697.625V712H235.484V709.045H235.314C235.086 709.519 234.708 710.026 234.177 710.565C233.647 711.105 232.941 711.564 232.061 711.943C231.18 712.322 230.105 712.511 228.836 712.511ZM229.348 709.5C230.673 709.5 231.791 709.24 232.7 708.719C233.618 708.198 234.31 707.526 234.774 706.702C235.247 705.878 235.484 705.011 235.484 704.102V701.034C235.342 701.205 235.029 701.361 234.547 701.503C234.073 701.635 233.524 701.754 232.899 701.858C232.283 701.953 231.682 702.038 231.095 702.114C230.517 702.18 230.048 702.237 229.689 702.284C228.817 702.398 228.003 702.582 227.245 702.838C226.497 703.084 225.891 703.458 225.427 703.96C224.973 704.453 224.745 705.125 224.745 705.977C224.745 707.142 225.176 708.023 226.038 708.619C226.909 709.206 228.012 709.5 229.348 709.5ZM244.955 712V690.182H248.194V693.477H248.421C248.819 692.398 249.538 691.522 250.58 690.849C251.622 690.177 252.796 689.841 254.103 689.841C254.349 689.841 254.657 689.846 255.026 689.855C255.395 689.865 255.675 689.879 255.864 689.898V693.307C255.75 693.278 255.49 693.236 255.083 693.179C254.685 693.113 254.264 693.08 253.819 693.08C252.758 693.08 251.811 693.302 250.978 693.747C250.154 694.183 249.5 694.789 249.017 695.565C248.544 696.332 248.307 697.208 248.307 698.193V712H244.955Z" fill="black"/>
<line x1="429.99" y1="279.5" x2="480.99" y2="278.5" stroke="black"/>
<ellipse cx="455" cy="260.5" rx="5" ry="4.5" fill="black"/>
<ellipse cx="455" cy="298.5" rx="5" ry="4.5" fill="black"/>
</svg>
